PathFileType	4	(X/Y/Z)	Patient4_TMGait_0pt6_01_right_13.trc.trc
DataRate	CameraRate	NumFrames	NumMarkers	Units	OrigDataRate	OrigDataStartFrame	OrigNumFrames
80.924855491329	80.924855491329	4	33	mm	80.924855491329	53	       141
Frame#	Time	Sacral			L.Shoulder			Chest			R.Shoulder			Neck			R.ASIS			L.ASIS			R.Thigh.Superior			R.Thigh.Lateral			R.Thigh.Inferior			R.Patella			L.Thigh.Superior			L.Thigh.Lateral			L.Thigh.Inferior			L.Patella			L.Shank.Superior			L.Shank.Lateral			L.Shank.Inferior			R.Shank.Superior			R.Shank.Lateral			R.Shank.Inferior			R.Heel			R.Midfoot.Superior			R.Midfoot.Lateral			R.Toe			L.Heel			L.Midfoot.Lateral			L.Midfoot.Superior			L.Toe			L.Elbow			L.Wrist			R.Elbow			R.Wrist			
		X1	Y1	Z1	X2	Y2	Z2	X3	Y3	Z3	X4	Y4	Z4	X5	Y5	Z5	X6	Y6	Z6	X7	Y7	Z7	X8	Y8	Z8	X9	Y9	Z9	X10	Y10	Z10	X11	Y11	Z11	X12	Y12	Z12	X13	Y13	Z13	X14	Y14	Z14	X15	Y15	Z15	X16	Y16	Z16	X17	Y17	Z17	X18	Y18	Z18	X19	Y19	Z19	X20	Y20	Z20	X21	Y21	Z21	X22	Y22	Z22	X23	Y23	Z23	X24	Y24	Z24	X25	Y25	Z25	X26	Y26	Z26	X27	Y27	Z27	X28	Y28	Z28	X29	Y29	Z29	X30	Y30	Z30	X31	Y31	Z31	X32	Y32	Z32	X33	Y33	Z33	

53	15.822571428571	664.264947372765	1006.763463478597	513.839979650434	797.270852905012	1441.947549755659	326.552695297374	921.950537179425	1375.300107295374	472.584064314614	858.100994960211	1439.601164722206	657.176448947965	795.287814108060	1498.934367153267	484.474909451278	898.866403143474	947.693736546762	613.445247609862	865.352302594654	969.669986641064	341.068192674777	918.229767665729	739.358693044627	583.093063157787	825.096266098116	635.873709939515	642.058920011626	893.929786629854	579.102384325489	561.651264743182	885.135632857256	493.972481821405	565.095511861788	956.387062489010	790.639815771904	367.153266477060	913.358447405412	661.515510707489	289.226515147050	1021.409543327267	604.354841028975	344.674013462252	1044.061353440729	524.088271193083	336.271365849950	1001.584685952668	448.746676697118	329.078327286272	886.226380389007	355.125783498125	286.756332476289	932.241477601859	230.396861075084	336.429850074473	857.764485914656	406.207917046694	568.131808885290	785.158359694739	299.856939090123	621.622676526279	832.429444283241	208.039472649628	557.156779331375	700.109698156515	42.406022220772	513.697194001121	870.868190538337	96.771931927044	557.336885421024	780.562731870678	36.458090477591	591.623525230749	988.851930398874	43.773110700287	589.307094040378	790.419433395384	89.447300791565	384.111989243201	853.039382879572	77.575862523691	296.134103563147	946.356555246047	128.677510510410	310.676443919682	1060.413096964161	62.768341312716	267.537396505130	750.686622533250	1084.753215996477	224.225327218561	789.724882442252	827.935510704825	224.728869621378	956.298728560047	1103.606256385060	773.298786821432	1180.458955823390	971.659089079224	760.339604913789	
54	15.834928571429	663.511007061518	1006.685950702994	515.044781929134	795.596971476099	1441.553457293266	326.908115991378	921.227366855443	1374.909956149950	472.122971880791	858.629465492321	1439.449034914672	657.070440189563	794.618905829621	1498.573194756767	484.796992353091	898.243228669915	947.072496575822	613.365534882744	863.685349612148	969.396002576055	341.178719997059	915.344319201064	738.314138064900	582.686449908933	821.439433273845	635.604048182085	642.390246996485	888.905005399438	578.328612653069	561.525362923381	879.290979995010	493.491525143407	565.006344339978	954.428360097739	790.401866603459	367.802853021314	912.205588964682	661.513965899690	289.216087914688	1019.389712201127	604.389713794245	346.297512277848	1043.591793653596	526.376986857866	337.610427933233	1005.181138800736	450.832908603255	329.649681162045	896.789814121063	350.316223011224	285.508890799105	950.186962450440	228.324242138485	335.403597274342	851.546816679731	405.849895777993	568.129441241291	778.819754672277	299.661045367733	621.812122072995	825.483128097702	207.774376818192	557.081044120840	692.646178959275	42.304497602572	513.740904079593	863.344928336740	96.722799102029	557.317205226067	773.053075207113	36.414726964295	591.651120400214	981.325049119853	43.826271128825	589.333650923125	817.207937860147	78.587045501912	381.048088977741	881.769780601461	70.579857305778	294.025510199328	971.621082794107	127.191012117407	309.732422834622	1090.059977788163	68.176962762335	268.429239259128	740.279940289804	1085.401537854404	226.205818417759	771.014087037002	827.599604969695	228.845451135688	964.956420768109	1106.552629036528	772.961431666348	1195.509540840318	986.489045512974	758.515451630916	
55	15.847285714286	662.799586142724	1006.453811411163	516.136919253190	794.000998847618	1441.066441785650	327.164424858307	920.546785148496	1374.365524810127	471.552720999415	859.175087937755	1439.118357262073	656.850116649666	794.014940475307	1498.078846213960	485.022149706277	897.670725400103	946.353606065703	613.143491061591	862.031917120576	968.904596164182	341.123843396129	912.638162585797	737.201012243471	582.258135600714	818.030833723239	635.231647893904	642.658831554904	884.138472937796	577.500251879148	561.312076775672	873.730716055889	492.929926787619	564.812100523904	952.193670986813	789.661838150865	368.427211959793	910.724202968807	661.183631529110	289.060186630415	1016.831618361318	603.893176608231	347.995146866647	1042.504483623920	528.224475878361	339.079016371608	1008.128447116126	452.778019770548	330.367906308728	907.175642578030	345.897691500283	284.183766353729	967.449555194599	227.127364622204	334.652161725222	845.573210815260	405.416234035186	568.061397307595	772.686100087558	299.418112786816	621.998910240884	818.610797125885	207.444250497808	556.957471376445	685.175121738710	42.193317393272	513.784727095516	855.802523239654	96.663199463397	557.285943889263	765.538719081252	36.359935936029	591.670044588669	973.796586565385	43.880700852697	589.351309556198	843.462525220747	69.495142737770	378.010488581476	910.098410628694	65.101002212520	292.247140725372	996.205920248491	126.830452173856	309.294946601681	1118.619333610900	74.582892989605	270.490255859495	730.104079703301	1086.209581989786	228.117823622942	752.947725023222	827.737647304413	232.853282887450	973.130278662393	1109.408631355249	772.444809422769	1209.342923047439	1001.292305960033	756.571596644367	
56	15.859642857143	662.126602752956	1006.099670918466	517.117984542344	792.476930225377	1440.517247055453	327.318675372397	919.901993273059	1373.705929902641	470.875915454677	859.733081533660	1438.648190040936	656.518249712132	793.473812657340	1497.486179114168	485.142411336185	897.164277061067	945.572157499333	612.784541787665	860.382069464209	968.240767765691	340.906123509489	910.117741619507	736.041764449248	581.804998563354	814.867279326778	634.778278490503	642.850565886829	879.634603376199	576.629781288088	561.008013994476	868.457456151544	492.296642901695	564.507613079984	949.726951319106	788.530742382347	368.995691232672	908.963624575193	660.600740738972	288.758284659089	1013.876777059441	602.994951791919	349.635728160344	1040.907901675292	529.688005749005	340.587075478646	1010.471852933779	454.605431017538	331.162361562669	917.206854248210	341.972997531080	282.868072662057	983.798941186731	226.805527238322	334.186088627500	839.842216947010	404.915930357567	567.920320998761	766.749803439384	299.148424654276	622.174450212868	811.815017729454	207.063649692491	556.791528967672	677.694889402350	42.083315310795	513.829267517753	848.245744584343	96.593362613231	557.242655370026	758.021940371512	36.296843927065	591.677524068673	966.271235988458	43.930845947297	589.360801930131	868.769616304293	62.246678221487	375.191543806610	937.535178856315	61.133344373581	290.912410102383	1019.741608317237	127.539705905481	309.351209268366	1145.680075492554	81.802227853424	273.570771097659	720.264550232267	1087.169537322295	229.971914524235	735.590151911351	828.296110978057	236.722203231952	980.800147591831	1112.156056484364	771.742829299821	1221.938205832832	1015.938140701476	754.523977072675	
